<svg width="103" height="104" viewBox="0 0 103 104" fill="none" xmlns="http://www.w3.org/2000/svg">
<g clip-path="url(#clip0_3831_4)">
<path d="M51.5 103C79.6665 103 102.5 80.1665 102.5 52C102.5 23.8335 79.6665 1 51.5 1C23.3335 1 0.5 23.8335 0.5 52C0.5 80.1665 23.3335 103 51.5 103Z" fill="#F4F4F4" stroke="#D6D6D6" stroke-dasharray="2 4"/>
<path fill-rule="evenodd" clip-rule="evenodd" d="M58.2999 50.5339H53.1931V45.6336C53.1931 44.7321 52.4315 44 51.493 44C50.5548 44 49.7929 44.7321 49.7929 45.6336V50.5342L44.7001 50.5339C43.7617 50.5339 43 51.2658 43 52.1673C43 53.069 43.7617 53.8009 44.7001 53.8009H49.7934V58.7014C49.7934 59.6032 50.5551 60.335 51.4935 60.335C52.4317 60.335 53.1934 59.6032 53.1934 58.7014V53.8009H58.2999C59.2383 53.8009 60 53.069 60 52.1673C60 51.2658 59.2383 50.5339 58.2999 50.5339Z" fill="#DEDEDE"/>
</g>
<defs>
<clipPath id="clip0_3831_4">
<rect width="103" height="103" fill="white" transform="translate(0 0.5)"/>
</clipPath>
</defs>
</svg>
