<svg width="15" height="12" viewBox="0 0 15 12" fill="none" xmlns="http://www.w3.org/2000/svg">
<g id="Group 39668">
<g id="Group">
<path id="Vector" d="M8.37684 12C8.2449 11.9994 8.11846 11.9471 8.02479 11.8541L2.49252 6.35708C2.44538 6.31033 2.40796 6.2547 2.38243 6.19342C2.3569 6.13213 2.34375 6.06639 2.34375 6C2.34375 5.93361 2.3569 5.86787 2.38243 5.80658C2.40796 5.7453 2.44538 5.68967 2.49252 5.64292L7.56712 0.613579C7.75437 0.419861 7.97862 0.265729 8.22657 0.160329C8.47452 0.0549283 8.74112 0.000407054 9.01054 0H12.9032C13.3034 0 13.6872 0.158962 13.9701 0.441917C14.2531 0.724873 14.412 1.10864 14.412 1.5088V5.37133C14.4116 5.63715 14.3585 5.90023 14.2558 6.1454C14.153 6.39056 14.0027 6.61293 13.8136 6.79966L8.70878 11.8541C8.62011 11.9423 8.50177 11.9943 8.37684 12ZM3.52353 6L8.37684 10.7879L13.1296 6.0855C13.3123 5.89323 13.4118 5.63655 13.4062 5.37133V1.5088C13.4062 1.37541 13.3532 1.24749 13.2589 1.15317C13.1646 1.05885 13.0366 1.00587 12.9032 1.00587H8.97533C8.71145 1.00698 8.45858 1.11174 8.27123 1.29757L3.52353 6Z" fill="#1F2D55"/>
<path id="Vector_2" d="M5.79963 11.7929C5.66725 11.7937 5.53602 11.7683 5.41347 11.7183C5.29092 11.6682 5.17945 11.5944 5.08546 11.5012L0.297534 6.71329C0.203255 6.61978 0.128425 6.50853 0.0773582 6.38596C0.0262916 6.26339 0 6.13191 0 5.99913C0 5.86634 0.0262916 5.73487 0.0773582 5.61229C0.128425 5.48972 0.203255 5.37847 0.297534 5.28496L4.5775 1.05026C4.76218 0.863583 4.98238 0.715785 5.2251 0.615586C5.46782 0.515387 5.72816 0.464816 5.99074 0.466856H7.87171C7.97118 0.467273 8.06829 0.497175 8.15076 0.552781C8.23324 0.608387 8.29737 0.687199 8.33505 0.779252C8.37273 0.871306 8.38227 0.972466 8.36247 1.06994C8.34266 1.16742 8.29439 1.25683 8.22377 1.32687L3.52134 5.99913L7.43416 9.87675C7.48168 9.92333 7.51949 9.97887 7.54539 10.0402C7.57129 10.1015 7.58477 10.1673 7.58504 10.2338C7.58477 10.3004 7.57129 10.3662 7.54539 10.4275C7.51949 10.4888 7.48168 10.5443 7.43416 10.5909L6.50374 11.5314C6.31161 11.7062 6.0593 11.7999 5.79963 11.7929ZM5.99074 1.47272C5.72686 1.47383 5.47399 1.5786 5.28664 1.76443L1.00667 5.99913L5.79963 10.7871L6.36291 10.2338L2.45512 6.35621C2.40798 6.30946 2.37056 6.25383 2.34503 6.19254C2.3195 6.13126 2.30635 6.06552 2.30635 5.99913C2.30635 5.93273 2.3195 5.867 2.34503 5.80571C2.37056 5.74442 2.40798 5.6888 2.45512 5.64204L6.65964 1.47272H5.99074Z" fill="#1F2D55"/>
<path id="Vector_3" d="M11.6543 3.72658C11.4554 3.72658 11.2609 3.66759 11.0955 3.55706C10.9301 3.44653 10.8011 3.28944 10.725 3.10564C10.6489 2.92184 10.629 2.7196 10.6678 2.52448C10.7066 2.32936 10.8024 2.15013 10.943 2.00946C11.0837 1.86878 11.263 1.77298 11.4581 1.73417C11.6532 1.69536 11.8554 1.71528 12.0392 1.79141C12.223 1.86754 12.3801 1.99647 12.4907 2.16188C12.6012 2.3273 12.6602 2.52177 12.6602 2.72071C12.6602 2.98748 12.5542 3.24333 12.3656 3.43197C12.1769 3.6206 11.9211 3.72658 11.6543 3.72658ZM11.6543 2.24795C11.5548 2.24795 11.4576 2.27745 11.3749 2.33271C11.2922 2.38798 11.2277 2.46652 11.1897 2.55842C11.1516 2.65032 11.1416 2.75145 11.161 2.84901C11.1804 2.94656 11.2283 3.03618 11.2987 3.10652C11.369 3.17685 11.4586 3.22475 11.5562 3.24416C11.6537 3.26356 11.7549 3.2536 11.8468 3.21554C11.9387 3.17747 12.0172 3.11301 12.0725 3.0303C12.1277 2.9476 12.1572 2.85036 12.1572 2.75089C12.1572 2.68484 12.1442 2.61944 12.119 2.55842C12.0937 2.4974 12.0566 2.44196 12.0099 2.39526C11.9632 2.34856 11.9078 2.31151 11.8468 2.28624C11.7858 2.26096 11.7204 2.24795 11.6543 2.24795Z" fill="#1F2D55"/>
<path id="Vector_4" d="M4.8545 6.25186C4.78654 6.2517 4.72142 6.22457 4.67345 6.17642C4.62737 6.12942 4.60156 6.06622 4.60156 6.0004C4.60156 5.93458 4.62737 5.87138 4.67345 5.82437L8.13866 2.36922C8.18651 2.32282 8.25055 2.29688 8.3172 2.29688C8.38385 2.29688 8.44789 2.32282 8.49574 2.36922C8.51931 2.39259 8.53802 2.42041 8.55079 2.45105C8.56355 2.48169 8.57013 2.51456 8.57013 2.54776C8.57013 2.58095 8.56355 2.61382 8.55079 2.64447C8.53802 2.67511 8.51931 2.70292 8.49574 2.7263L5.00538 6.17642C4.96528 6.21819 4.91198 6.24484 4.8545 6.25186Z" fill="#1F2D55"/>
<path id="Vector_5" d="M5.60105 7.0293C5.53309 7.02913 5.46797 7.002 5.42 6.95386C5.3736 6.906 5.34766 6.84197 5.34766 6.77532C5.34766 6.70866 5.3736 6.64463 5.42 6.59678L8.87515 3.14665C8.89853 3.12308 8.92634 3.10437 8.95699 3.0916C8.98763 3.07884 9.0205 3.07227 9.05369 3.07227C9.08689 3.07227 9.11976 3.07884 9.1504 3.0916C9.18105 3.10437 9.20886 3.12308 9.23223 3.14665C9.27863 3.1945 9.30458 3.25854 9.30458 3.32519C9.30458 3.39184 9.27863 3.45588 9.23223 3.50373L5.77708 6.95386C5.75426 6.97754 5.72693 6.99642 5.69669 7.00938C5.66646 7.02233 5.63394 7.02911 5.60105 7.0293Z" fill="#1F2D55"/>
<path id="Vector_6" d="M6.35979 7.81009C6.29346 7.80915 6.23019 7.78203 6.18376 7.73465C6.16019 7.71128 6.14148 7.68347 6.12871 7.65282C6.11595 7.62218 6.10938 7.58931 6.10938 7.55611C6.10938 7.52292 6.11595 7.49005 6.12871 7.4594C6.14148 7.42876 6.16019 7.40095 6.18376 7.37757L7.91385 5.65251C7.93723 5.62894 7.96504 5.61023 7.99568 5.59746C8.02633 5.5847 8.0592 5.57812 8.09239 5.57812C8.12559 5.57812 8.15846 5.5847 8.1891 5.59746C8.21974 5.61023 8.24756 5.62894 8.27093 5.65251C8.31733 5.70036 8.34327 5.7644 8.34327 5.83105C8.34327 5.8977 8.31733 5.96174 8.27093 6.00959L6.54084 7.73465C6.49287 7.7828 6.42775 7.80993 6.35979 7.81009Z" fill="#1F2D55"/>
</g>
</g>
</svg>
