<svg width="11" height="12" viewBox="0 0 11 12" fill="none" xmlns="http://www.w3.org/2000/svg">
<path id="icon" fill-rule="evenodd" clip-rule="evenodd" d="M9.33333 1.33268H8.75V0.166016H7.58333V1.33268H2.91667V0.166016H1.75V1.33268H1.16667C0.519167 1.33268 0 1.85768 0 2.49935V10.666C0 11.3077 0.519167 11.8327 1.16667 11.8327H9.33333C9.975 11.8327 10.5 11.3077 10.5 10.666V2.49935C10.5 1.85768 9.975 1.33268 9.33333 1.33268ZM9.33333 10.666H1.16667V4.24935H9.33333V10.666ZM2.04167 6.58268C2.04167 5.77768 2.695 5.12435 3.5 5.12435C4.305 5.12435 4.95833 5.77768 4.95833 6.58268C4.95833 7.38768 4.305 8.04102 3.5 8.04102C2.695 8.04102 2.04167 7.38768 2.04167 6.58268Z" fill="#1F2D55"/>
</svg>
