<svg width="24" height="24" viewBox="0 0 24 24" fill="none" xmlns="http://www.w3.org/2000/svg">
<g id="Group">
<g id="Group_2">
<g id="Group_3">
<path id="Vector" d="M12.0004 0C5.30706 0.0533333 -0.0529388 5.46667 0.000394578 12.08C0.0537279 18.64 5.41373 24 12.0004 24H12.0804C15.2804 23.9733 18.2937 22.72 20.5337 20.4267C22.7737 18.1333 24.0271 15.12 24.0004 11.92C23.9471 5.36 18.5871 0 12.0004 0ZM19.3871 19.3067C17.4404 21.28 14.8271 22.3733 12.0537 22.4H12.0004C6.3204 22.4 1.65373 17.76 1.62706 12.08C1.60039 6.34667 6.21373 1.68 11.9471 1.62667C17.7071 1.62667 22.3471 6.26667 22.4004 11.9467C22.4004 14.72 21.3337 17.3333 19.3871 19.3067Z" fill="#1F2D55"/>
<path id="Vector_2" d="M16.1361 4.82617C15.3361 4.82617 14.5628 5.14617 13.9761 5.70617L5.97614 13.7062C5.86948 13.8128 5.78948 13.9462 5.76281 14.1062L4.93614 18.1328C4.88281 18.3995 4.96281 18.6395 5.14948 18.8262C5.28281 18.9595 5.49614 19.0395 5.70948 19.0395C5.76281 19.0395 5.81614 19.0395 5.86948 19.0128L9.86948 18.2395C10.0295 18.2128 10.1628 18.1328 10.2695 18.0262L18.2695 10.0262C19.4428 8.85284 19.4428 6.90617 18.2695 5.73284C17.7095 5.14617 16.9361 4.82617 16.1361 4.82617ZM7.78948 17.0928C7.70948 16.9062 7.57614 16.7462 7.41614 16.5862C7.25614 16.4262 7.09614 16.3195 6.90948 16.2128L7.20281 14.8262C7.68281 14.9062 8.13614 15.1462 8.50948 15.4928C8.85614 15.8395 9.09614 16.2928 9.17614 16.7995L7.78948 17.0928ZM17.1761 8.93284L10.0561 16.0262C9.89614 15.5462 9.60281 15.0928 9.22948 14.7462C8.85614 14.3728 8.42948 14.1062 7.94948 13.9195L15.0695 6.7995C15.3628 6.50617 15.7361 6.37284 16.1361 6.37284C16.5361 6.37284 16.9095 6.53284 17.2028 6.7995C17.7628 7.38617 17.7628 8.34617 17.1761 8.93284Z" fill="#1F2D55"/>
</g>
</g>
</g>
</svg>
