<svg width="24" height="24" viewBox="0 0 24 24" fill="none" xmlns="http://www.w3.org/2000/svg">
<g id="Group 20">
<path id="Vector" d="M16.3187 7.82507L10.5206 13.6237L7.67651 10.7796C7.45291 10.5482 7.14576 10.4162 6.82371 10.4134C6.50188 10.4106 6.19252 10.5371 5.96489 10.7648C5.73728 10.9924 5.61051 11.3019 5.61333 11.6238C5.61614 11.9456 5.74813 12.2528 5.97976 12.4764L9.67182 16.1691H9.67162C9.89662 16.3941 10.202 16.5206 10.5202 16.5206C10.8384 16.5206 11.1436 16.3941 11.3686 16.1691L18.0148 9.52182V9.52202C18.3103 9.21726 18.423 8.77933 18.3111 8.3699C18.1992 7.96068 17.8794 7.64084 17.4701 7.52893C17.0607 7.41683 16.6227 7.52953 16.318 7.82505L16.3187 7.82507Z" fill="#10B981"/>
<path id="Vector_2" d="M12 0C8.8174 0 5.76522 1.26424 3.51468 3.51468C1.26423 5.76512 0 8.81755 0 12C0 15.1824 1.26423 18.2348 3.51468 20.4853C5.76512 22.7358 8.81755 24 12 24C15.1824 24 18.2348 22.7358 20.4853 20.4853C22.7358 18.2349 24 15.1824 24 12C23.9964 8.81843 22.7309 5.76831 20.4813 3.51879C18.2317 1.26917 15.1815 0.00370285 12.0001 0.000102802L12 0ZM12 21.6003C9.45384 21.6003 7.01197 20.5888 5.21185 18.7884C3.41141 16.9881 2.3999 14.5463 2.3999 12.0002C2.3999 9.45415 3.41141 7.01218 5.21185 5.21205C7.01208 3.41161 9.45394 2.4001 12 2.4001C14.5461 2.4001 16.988 3.41161 18.7882 5.21205C20.5886 7.01228 21.6001 9.45415 21.6001 12.0002C21.5971 14.5453 20.5848 16.9857 18.785 18.7853C16.9853 20.5851 14.5451 21.5974 11.9999 21.6004L12 21.6003Z" fill="#10B981"/>
</g>
</svg>
