<svg width="16" height="16" viewBox="0 0 16 16" fill="none" xmlns="http://www.w3.org/2000/svg">
<g id="verified">
<g id="Vector">
<path d="M15.3346 7.99333L13.708 6.13333L13.9346 3.67333L11.528 3.12667L10.268 1L8.0013 1.97333L5.73464 1L4.47464 3.12667L2.06797 3.66667L2.29464 6.13333L0.667969 7.99333L2.29464 9.85333L2.06797 12.32L4.47464 12.8667L5.73464 15L8.0013 14.02L10.268 14.9933L11.528 12.8667L13.9346 12.32L13.708 9.86L15.3346 7.99333ZM12.7013 8.98L12.328 9.41333L12.3813 9.98L12.5013 11.28L10.6746 11.6933L10.3813 12.1867L9.7213 13.3067L8.53464 12.7933L8.0013 12.5667L7.47464 12.7933L6.28797 13.3067L5.62797 12.1933L5.33464 11.7L3.50797 11.2867L3.62797 9.98L3.6813 9.41333L3.30797 8.98L2.44797 8L3.30797 7.01333L3.6813 6.58L3.6213 6.00667L3.5013 4.71333L5.32797 4.3L5.6213 3.80667L6.2813 2.68667L7.46797 3.2L8.0013 3.42667L8.52797 3.2L9.71463 2.68667L10.3746 3.80667L10.668 4.3L12.4946 4.71333L12.3746 6.01333L12.3213 6.58L12.6946 7.01333L13.5546 7.99333L12.7013 8.98Z" fill="#1F2D55"/>
<path d="M6.72797 9.16667L5.1813 7.61333L4.19464 8.60667L6.72797 11.1467L11.6213 6.24L10.6346 5.24667L6.72797 9.16667Z" fill="#1F2D55"/>
</g>
</g>
</svg>
