<svg width="14" height="14" viewBox="0 0 14 14" fill="none" xmlns="http://www.w3.org/2000/svg">
<path id="Vector" d="M10.2302 6.23602C10.1758 6.06855 10.0198 5.95528 9.84381 5.95528H9.84381H9.8438H9.84379H9.84378H9.84377H9.84377H9.84376H9.84375H9.84374H9.84374H9.84373H9.84372H9.84371H9.84371H9.8437H9.84369H9.84368H9.84367H9.84367H9.84366H9.84365H9.84364H9.84364H9.84363H9.84362H9.84361H9.84361H9.8436H9.84359H9.84358H9.84358H9.84357H9.84356H9.84355H9.84354H9.84353H9.84353H9.84352H9.84351H9.8435H9.84349H9.84349H9.84348H9.84347H9.84346H9.84346H9.84345H9.84344H9.84343H9.84342H9.84342H9.84341H9.8434H9.84339H9.84339H9.84338H9.84337H9.84336H9.84336H9.84335H9.84334H9.84333H9.84332H9.84332H9.84331H9.8433H9.84329H9.84329H9.84327H9.84303L10.1113 6.27462M10.2302 6.23602L10.1113 6.27462M10.2302 6.23602C10.2302 6.23601 10.2302 6.236 10.2302 6.23599L10.1113 6.27462M10.2302 6.23602C10.2846 6.40365 10.2248 6.58729 10.082 6.69064L10.082 6.69065L8.55956 7.79227M10.1113 6.27462C10.149 6.39068 10.1076 6.51783 10.0087 6.58939L8.41241 7.74446M8.55956 7.79227L8.53122 7.70561L8.41241 7.74446M8.55956 7.79227L9.14367 9.57838C9.19848 9.74597 9.13891 9.9297 8.99635 10.0333L8.99631 10.0333C8.92512 10.085 8.84127 10.1109 8.75753 10.1109C8.67357 10.1109 8.58941 10.0849 8.51811 10.0328M8.55956 7.79227L8.48569 7.84573L8.41241 7.74446M8.41241 7.74446L9.02486 9.61724C9.06281 9.73325 9.02158 9.86045 8.92286 9.93219C8.87355 9.968 8.81554 9.98591 8.75753 9.98591C8.69936 9.98591 8.64114 9.96789 8.59178 9.93186M3.9913 6.58939C3.89245 6.51783 3.85101 6.39068 3.88872 6.27462C3.92636 6.15872 4.03438 6.08028 4.15619 6.08028H4.15673L6.12707 6.08407M3.9913 6.58939L7.87288 6.08407M3.9913 6.58939L5.58759 7.74446L3.9913 6.58939ZM6.12707 6.08407L6.73237 4.20895C6.76987 4.09282 6.87798 4.01412 7.00002 4.01412C7.12206 4.01412 7.23018 4.09282 7.26768 4.20898L7.87288 6.08407M6.12707 6.08407L6.12731 5.95907L6.03613 5.9589M6.12707 6.08407L6.00811 6.04567L6.03613 5.9589M7.87288 6.08407L7.87264 5.95907L7.96383 5.9589L7.99184 6.04568L7.87288 6.08407ZM6.03613 5.9589L4.15697 5.95528H4.15673H4.15672H4.15672H4.15671H4.15671H4.1567H4.1567H4.1567H4.15669H4.15669H4.15668H4.15668H4.15667H4.15667H4.15666H4.15666H4.15666H4.15665H4.15665H4.15664H4.15664H4.15663H4.15663H4.15663H4.15662H4.15662H4.15661H4.15661H4.1566H4.1566H4.15659H4.15659H4.15659H4.15658H4.15658H4.15657H4.15657H4.15656H4.15656H4.15656H4.15655H4.15655H4.15654H4.15654H4.15653H4.15653H4.15653H4.15652H4.15652H4.15651H4.15651H4.1565H4.1565H4.1565H4.15649H4.15649H4.15648H4.15648H4.15647H4.15647H4.15647H4.15646H4.15646H4.15645H4.15645H4.15644H4.15644H4.15644H4.15643H4.15643H4.15642H4.15642H4.15641H4.15641H4.15641H4.1564H4.1564H4.15639H4.15639H4.15638H4.15638H4.15638H4.15637H4.15637H4.15636H4.15636H4.15636H4.15635H4.15635H4.15634H4.15634H4.15634H4.15633H4.15633H4.15632H4.15632H4.15631H4.15631H4.15631H4.1563H4.1563H4.15629H4.15629H4.15629H4.15628H4.15628H4.15627H4.15627H4.15627H4.15626H4.15626H4.15625H4.15625H4.15625H4.15624H4.15624H4.15623H4.15623H4.15623H4.15622H4.15622H4.15621H4.15621H4.15621H4.1562H4.1562H4.1562H4.15619H4.15619C3.98025 5.95528 3.82422 6.06857 3.76984 6.23599C3.71537 6.40364 3.77522 6.58729 3.91801 6.69064L3.91803 6.69065L5.44043 7.79227L4.85629 9.57835C4.85629 9.57835 4.85629 9.57835 4.85629 9.57836C4.80148 9.74592 4.86103 9.9297 5.00362 10.0333C5.14621 10.1369 5.33938 10.1368 5.48184 10.0328C5.48185 10.0328 5.48186 10.0328 5.48187 10.0328L7 8.92537L8.51809 10.0328C8.5181 10.0328 8.51811 10.0328 8.51811 10.0328M6.03613 5.9589L8.59178 9.93186M8.51811 10.0328L8.59178 9.93186M8.51811 10.0328L8.59178 9.93186M5.07709 9.93217C4.97837 9.86045 4.93715 9.7332 4.97509 9.61721L5.07709 9.93217ZM5.07709 9.93217C5.17584 10.0039 5.30957 10.0038 5.40817 9.93184L5.07709 9.93217ZM7.84317 7.30775L7.84316 7.30776C7.70013 7.41128 7.64035 7.59532 7.69522 7.76313L7.81403 7.72428L7.69522 7.76313L7.98026 8.63474L7.23944 8.09432L7.23944 8.09431C7.0968 7.99027 6.90333 7.99026 6.76062 8.09429L6.76058 8.09432L6.0197 8.63477L6.30475 7.76316L6.30476 7.76315C6.35963 7.59532 6.29982 7.41126 6.15681 7.30776L6.1568 7.30775L5.4139 6.77019L6.33088 6.77195H6.33112H6.33112H6.33113H6.33113H6.33113H6.33114H6.33114H6.33115H6.33115H6.33116H6.33116H6.33117H6.33117H6.33118H6.33118H6.33118H6.33119H6.33119H6.3312H6.3312H6.33121H6.33121H6.33121H6.33122H6.33122H6.33123H6.33123H6.33124H6.33124H6.33125H6.33125H6.33126H6.33126H6.33126H6.33127H6.33127H6.33128H6.33128H6.33129H6.33129H6.3313H6.3313H6.3313H6.33131H6.33131H6.33132H6.33132H6.33133H6.33133H6.33134H6.33134H6.33134H6.33135H6.33135H6.33136H6.33136H6.33136H6.33137H6.33137H6.33138H6.33138H6.33139H6.33139H6.33139H6.3314H6.3314H6.33141H6.33141H6.33141H6.33142H6.33142H6.33143H6.33143H6.33143H6.33144H6.33144H6.33145H6.33145H6.33145H6.33146H6.33146H6.33147H6.33147H6.33147H6.33148H6.33148H6.33149H6.33149H6.33149H6.3315H6.3315H6.33151H6.33151H6.33151H6.33152H6.33152H6.33153H6.33153H6.33153H6.33154H6.33154H6.33155H6.33155H6.33155H6.33156H6.33156H6.33157H6.33157H6.33157H6.33158H6.33158H6.33158H6.33159H6.33159H6.3316H6.3316H6.3316H6.33161H6.33161H6.33162H6.33162H6.33162H6.33163H6.33163H6.33163H6.33164H6.33164H6.33165H6.33165H6.33165C6.50789 6.77195 6.6641 6.65831 6.71827 6.49052L6.59931 6.45211L6.71827 6.49051L6.99997 5.61785L7.28164 6.49049C7.3358 6.6583 7.49201 6.77195 7.66825 6.77195H7.66825H7.66826H7.66826H7.66827H7.66827H7.66828H7.66828H7.66829H7.66829H7.66829H7.6683H7.6683H7.66831H7.66831H7.66832H7.66832H7.66832H7.66833H7.66833H7.66834H7.66834H7.66835H7.66835H7.66836H7.66836H7.66836H7.66837H7.66837H7.66838H7.66838H7.66839H7.66839H7.66839H7.6684H7.6684H7.66841H7.66841H7.66842H7.66842H7.66843H7.66843H7.66843H7.66844H7.66844H7.66845H7.66845H7.66846H7.66846H7.66846H7.66847H7.66847H7.66848H7.66848H7.66849H7.66849H7.66849H7.6685H7.6685H7.66851H7.66851H7.66852H7.66852H7.66852H7.66853H7.66853H7.66854H7.66854H7.66855H7.66855H7.66855H7.66856H7.66856H7.66857H7.66857H7.66857H7.66858H7.66858H7.66859H7.66859H7.6686H7.6686H7.6686H7.66861H7.66861H7.66862H7.66862H7.66862H7.66863H7.66863H7.66864H7.66864H7.66865H7.66865H7.66865H7.66866H7.66866H7.66867H7.66867H7.66867H7.66868H7.66868H7.66869H7.66869H7.66869H7.6687H7.6687H7.66871H7.66871H7.66871H7.66872H7.66872H7.66873H7.66873H7.66873H7.66874H7.66874H7.66875H7.66875H7.66875H7.66876H7.66876H7.66877H7.66877H7.66877H7.66878H7.66878H7.66879H7.66879H7.66903L8.58606 6.77019L7.84317 7.30775ZM7 0.875C3.62255 0.875 0.875 3.62256 0.875 7.00001C0.875 10.3774 3.62255 13.125 7 13.125C10.3774 13.125 13.125 10.3774 13.125 7.00001C13.125 3.62256 10.3774 0.875 7 0.875ZM7 12.3125C4.07077 12.3125 1.6875 9.92922 1.6875 7.00001C1.6875 4.07078 4.07077 1.6875 7 1.6875C9.92923 1.6875 12.3125 4.07078 12.3125 7.00001C12.3125 9.92922 9.92923 12.3125 7 12.3125Z" fill="#1F2D55" stroke="#1F2D55" stroke-width="0.25"/>
</svg>
