<svg width="11" height="11" viewBox="0 0 11 11" fill="none" xmlns="http://www.w3.org/2000/svg">
<g id="Group 39696">
<g id="Layer 2">
<path id="Vector" d="M9.82143 0.785714H8.25V0.392857C8.25 0.288665 8.20861 0.18874 8.13494 0.115065C8.06126 0.0413902 7.96133 0 7.85714 0C7.75295 0 7.65303 0.0413902 7.57935 0.115065C7.50568 0.18874 7.46429 0.288665 7.46429 0.392857V0.785714H3.53571V0.392857C3.53571 0.288665 3.49432 0.18874 3.42065 0.115065C3.34697 0.0413902 3.24705 0 3.14286 0C3.03866 0 2.93874 0.0413902 2.86507 0.115065C2.79139 0.18874 2.75 0.288665 2.75 0.392857V0.785714H1.17857C0.865995 0.785714 0.566221 0.909885 0.345196 1.13091C0.124171 1.35193 0 1.65171 0 1.96429V9.82143C0 10.134 0.124171 10.4338 0.345196 10.6548C0.566221 10.8758 0.865995 11 1.17857 11H9.82143C10.134 11 10.4338 10.8758 10.6548 10.6548C10.8758 10.4338 11 10.134 11 9.82143V1.96429C11 1.65171 10.8758 1.35193 10.6548 1.13091C10.4338 0.909885 10.134 0.785714 9.82143 0.785714ZM1.17857 1.57143H9.82143C9.92562 1.57143 10.0255 1.61282 10.0992 1.68649C10.1729 1.76017 10.2143 1.86009 10.2143 1.96429V3.14286H0.785714V1.96429C0.785714 1.86009 0.827105 1.76017 0.90078 1.68649C0.974455 1.61282 1.07438 1.57143 1.17857 1.57143ZM9.82143 10.2143H1.17857C1.07438 10.2143 0.974455 10.1729 0.90078 10.0992C0.827105 10.0255 0.785714 9.92562 0.785714 9.82143V3.92857H10.2143V9.82143C10.2143 9.92562 10.1729 10.0255 10.0992 10.0992C10.0255 10.1729 9.92562 10.2143 9.82143 10.2143Z" fill="#5B719D"/>
<path id="Vector_2" d="M7.34954 5.22245C7.27587 5.1488 7.17596 5.10742 7.07179 5.10742C6.96762 5.10742 6.86771 5.1488 6.79404 5.22245L3.65118 8.3653C3.61366 8.40154 3.58373 8.44489 3.56314 8.49282C3.54256 8.54075 3.53172 8.5923 3.53126 8.64447C3.53081 8.69663 3.54075 8.74836 3.5605 8.79664C3.58026 8.84492 3.60943 8.88879 3.64632 8.92567C3.6832 8.96256 3.72707 8.99173 3.77535 9.01148C3.82363 9.03124 3.87536 9.04118 3.92752 9.04072C3.97968 9.04027 4.03123 9.02943 4.07917 9.00884C4.1271 8.98825 4.17044 8.95832 4.20668 8.9208L7.34954 5.77795C7.42319 5.70427 7.46457 5.60437 7.46457 5.5002C7.46457 5.39602 7.42319 5.29612 7.34954 5.22245Z" fill="#5B719D"/>
<path id="Vector_3" d="M5.10714 5.89342C5.10714 5.66032 5.03802 5.43245 4.90852 5.23864C4.77902 5.04482 4.59495 4.89376 4.37959 4.80456C4.16424 4.71535 3.92726 4.69201 3.69864 4.73749C3.47002 4.78297 3.26002 4.89521 3.0952 5.06004C2.93037 5.22487 2.81812 5.43487 2.77265 5.66349C2.72717 5.89211 2.75051 6.12908 2.83971 6.34444C2.92892 6.55979 3.07998 6.74386 3.27379 6.87336C3.46761 7.00287 3.69547 7.07199 3.92857 7.07199C4.24115 7.07199 4.54092 6.94782 4.76195 6.72679C4.98297 6.50577 5.10714 6.20599 5.10714 5.89342ZM3.53571 5.89342C3.53571 5.81572 3.55876 5.73976 3.60192 5.67516C3.64509 5.61055 3.70645 5.5602 3.77823 5.53046C3.85002 5.50073 3.92901 5.49295 4.00521 5.50811C4.08142 5.52327 4.15142 5.56068 4.20636 5.61562C4.26131 5.67057 4.29872 5.74057 4.31388 5.81677C4.32904 5.89298 4.32126 5.97197 4.29152 6.04376C4.26179 6.11554 4.21144 6.1769 4.14683 6.22006C4.08223 6.26323 4.00627 6.28627 3.92857 6.28627C3.82438 6.28627 3.72446 6.24488 3.65078 6.17121C3.57711 6.09753 3.53571 5.99761 3.53571 5.89342Z" fill="#5B719D"/>
<path id="Vector_4" d="M7.0731 7.07227C6.84 7.07227 6.61214 7.14139 6.41832 7.27089C6.22451 7.40039 6.07345 7.58446 5.98425 7.79982C5.89504 8.01517 5.8717 8.25214 5.91718 8.48077C5.96265 8.70939 6.0749 8.91939 6.23973 9.08421C6.40455 9.24904 6.61455 9.36129 6.84318 9.40676C7.0718 9.45224 7.30877 9.4289 7.52412 9.3397C7.73948 9.25049 7.92355 9.09943 8.05305 8.90562C8.18255 8.7118 8.25167 8.48394 8.25167 8.25084C8.25167 7.93826 8.1275 7.63849 7.90648 7.41746C7.68545 7.19644 7.38568 7.07227 7.0731 7.07227ZM7.0731 8.64369C6.9954 8.64369 6.91945 8.62065 6.85484 8.57749C6.79024 8.53432 6.73989 8.47296 6.71015 8.40118C6.68042 8.32939 6.67264 8.2504 6.68779 8.17419C6.70295 8.09799 6.74037 8.02799 6.79531 7.97304C6.85025 7.9181 6.92025 7.88069 6.99646 7.86553C7.07267 7.85037 7.15166 7.85815 7.22344 7.88788C7.29523 7.91762 7.35658 7.96797 7.39975 8.03258C7.44292 8.09718 7.46596 8.17314 7.46596 8.25084C7.46596 8.35503 7.42457 8.45495 7.3509 8.52863C7.27722 8.6023 7.1773 8.64369 7.0731 8.64369Z" fill="#5B719D"/>
</g>
</g>
</svg>
