<svg width="11" height="12" viewBox="0 0 11 12" fill="none" xmlns="http://www.w3.org/2000/svg">
<g id="Group 39697">
<g id="Group">
<path id="Vector" fill-rule="evenodd" clip-rule="evenodd" d="M10.8802 9.01681L9.61101 4.28071C9.48655 3.8167 9.1481 3.44059 8.69993 3.26809C8.11474 3.04318 7.15835 2.6758 6.49455 2.42033C5.88698 2.18669 5.19807 2.37174 4.78865 2.87778C4.34157 3.43022 3.69743 4.22666 3.30275 4.71414C3.00088 5.08753 2.89552 5.58319 3.01998 6.04665L4.28917 10.7828C4.3918 11.1676 4.64345 11.4951 4.98845 11.6944C5.33345 11.8936 5.74286 11.9471 6.12771 11.8445C7.17472 11.5639 8.77144 11.1359 9.81845 10.8554C10.2033 10.7522 10.5308 10.5005 10.7301 10.1561C10.9293 9.81107 10.9834 9.40111 10.8802 9.01681ZM8.82002 4.49251L10.0892 9.22862C10.1362 9.4033 10.1116 9.58945 10.021 9.74666C9.93035 9.90333 9.78133 10.0174 9.60664 10.0644L5.91591 11.0535C5.74068 11.0999 5.55453 11.0759 5.39786 10.9853C5.24119 10.8947 5.12656 10.7456 5.08016 10.5709L3.81097 5.83484C3.7542 5.62413 3.80224 5.39868 3.9398 5.22946L5.42516 3.39255C5.6113 3.16273 5.92464 3.07867 6.20086 3.18457L8.40569 4.03233C8.60986 4.11094 8.7638 4.2818 8.82002 4.49251Z" fill="#5B719D"/>
<path id="Vector_2" fill-rule="evenodd" clip-rule="evenodd" d="M3.63915 10.61L1.26782 9.74696C1.09805 9.68527 0.959396 9.55808 0.882972 9.39432C0.806548 9.23001 0.79836 9.04277 0.860045 8.87245L2.53701 4.26517C2.61179 4.05992 2.77993 3.90325 2.98955 3.84266C3.11073 3.80772 3.2472 3.76896 3.3935 3.72693C3.61076 3.66415 3.73632 3.43761 3.67409 3.22035C3.61186 3.00309 3.38477 2.87753 3.1675 2.93976C3.02121 2.9818 2.88474 3.0211 2.76355 3.05549C2.30228 3.18814 1.93162 3.53369 1.76731 3.98513L0.0903461 8.59241C-0.0455795 8.96634 -0.0275652 9.37958 0.140568 9.74041C0.3087 10.1012 0.613851 10.3802 0.987782 10.5167C1.65049 10.7574 2.53864 11.0811 3.35911 11.3797C3.57146 11.4567 3.80674 11.3475 3.88425 11.1351C3.96122 10.9228 3.8515 10.6875 3.63915 10.61Z" fill="#5B719D"/>
<path id="Vector_3" fill-rule="evenodd" clip-rule="evenodd" d="M6.06284 4.23167C5.40832 4.4069 5.01911 5.08107 5.19434 5.73558C5.37011 6.39065 6.04428 6.77986 6.6988 6.60409C7.35386 6.42886 7.74253 5.75469 7.5673 5.10017C7.39207 4.44511 6.7179 4.05589 6.06284 4.23167ZM6.27519 5.02266C6.493 4.9637 6.7179 5.09362 6.77631 5.31198C6.83472 5.53033 6.70535 5.75469 6.48699 5.8131C6.26864 5.87206 6.04374 5.74214 5.98533 5.52378C5.92692 5.30543 6.05684 5.08107 6.27519 5.02266Z" fill="#5B719D"/>
<path id="Vector_4" fill-rule="evenodd" clip-rule="evenodd" d="M6.56799 4.52191L5.43746 0.30385C5.37905 0.0854953 5.1547 -0.0444256 4.93634 0.0139842C4.71799 0.072394 4.58807 0.297299 4.64702 0.515653L5.77701 4.73371C5.83542 4.95207 6.06032 5.08199 6.27867 5.02358C6.49648 4.96462 6.6264 4.74026 6.56799 4.52191Z" fill="#5B719D"/>
</g>
</g>
</svg>
