<svg width="11" height="11" viewBox="0 0 11 11" fill="none" xmlns="http://www.w3.org/2000/svg">
<g id="Group 39699">
<path id="Vector" d="M6.5 2C6.77614 2 7 1.77614 7 1.5C7 1.22386 6.77614 1 6.5 1C6.22386 1 6 1.22386 6 1.5C6 1.77614 6.22386 2 6.5 2Z" fill="#5B719D"/>
<path id="Vector_2" d="M9.5 2C9.77614 2 10 1.77614 10 1.5C10 1.22386 9.77614 1 9.5 1C9.22386 1 9 1.22386 9 1.5C9 1.77614 9.22386 2 9.5 2Z" fill="#5B719D"/>
<path id="Vector_3" d="M3.5 2C3.77614 2 4 1.77614 4 1.5C4 1.22386 3.77614 1 3.5 1C3.22386 1 3 1.22386 3 1.5C3 1.77614 3.22386 2 3.5 2Z" fill="#5B719D"/>
<path id="Vector_4" d="M0 9.13544C0 9.6299 0.199763 10.1041 0.555343 10.4538C0.910923 10.8034 1.39319 10.9998 1.89606 10.9998H10.3961C10.5417 11.0034 10.6836 10.954 10.7945 10.8611C10.9054 10.7683 10.9776 10.6384 10.9971 10.4964C11.0051 10.4184 10.9963 10.3396 10.9713 10.2652C10.9463 10.1907 10.9057 10.1223 10.8521 10.0643C10.7984 10.0062 10.733 9.95997 10.66 9.92843C10.587 9.89689 10.5081 9.8808 10.4283 9.88119H6.63621V5.63787L7.72076 6.71175C7.81611 6.81199 7.94407 6.87634 8.08254 6.8937C8.22101 6.91106 8.36129 6.88034 8.47918 6.80684C8.54815 6.76033 8.60584 6.69943 8.64815 6.6285C8.69045 6.55756 8.71633 6.47832 8.72393 6.39643C8.73154 6.31453 8.72068 6.232 8.69214 6.1547C8.6636 6.0774 8.61808 6.00725 8.55882 5.94922L6.81634 4.23586C6.71638 4.13324 6.59644 4.05145 6.46367 3.99536C6.27583 3.92 6.06959 3.90068 5.87066 3.9398C5.67173 3.97892 5.48891 4.07476 5.34499 4.21535L3.58355 5.94736C3.52331 6.00644 3.47731 6.07807 3.44895 6.15695C3.42059 6.23584 3.41059 6.31997 3.41969 6.40316C3.42878 6.48635 3.45675 6.56647 3.50151 6.63763C3.54628 6.70878 3.60671 6.76915 3.67836 6.81429C3.79222 6.88096 3.92592 6.90716 4.05708 6.88849C4.18823 6.86983 4.30889 6.80743 4.39886 6.71175L5.49857 5.63041V9.88119H1.70645C1.55559 9.88119 1.41091 9.82226 1.30424 9.71737C1.19756 9.61248 1.13764 9.47022 1.13764 9.32188V0.591007C1.14129 0.447798 1.09107 0.308299 0.996606 0.199242C0.90214 0.0901847 0.770068 0.0192391 0.6257 0H0.568818C0.428499 0.000822304 0.293441 0.0526148 0.189606 0.145421C0.130336 0.197547 0.0828386 0.261312 0.05018 0.332603C0.0175214 0.403893 0.000426924 0.481124 0 0.559313V9.13544Z" fill="#5B719D"/>
</g>
</svg>
