<svg width="9" height="9" viewBox="0 0 9 9" fill="none" xmlns="http://www.w3.org/2000/svg">
<g id="Group 39700">
<path id="Vector" d="M9.00293 6.74897C9.00293 6.62959 8.9555 6.51509 8.87109 6.43067C8.78667 6.34625 8.67217 6.29883 8.55278 6.29883C8.4334 6.29883 8.3189 6.34625 8.23448 6.43067C8.15006 6.51509 8.10264 6.62959 8.10264 6.74897V8.09941H6.30205V6.74897C6.30205 6.62959 6.25462 6.51509 6.17021 6.43067C6.08579 6.34625 5.97129 6.29883 5.8519 6.29883C5.73252 6.29883 5.61802 6.34625 5.5336 6.43067C5.44918 6.51509 5.40176 6.62959 5.40176 6.74897V8.09941H3.60117V6.74897C3.60117 6.62959 3.55375 6.51509 3.46933 6.43067C3.38491 6.34625 3.27041 6.29883 3.15103 6.29883C3.03164 6.29883 2.91714 6.34625 2.83272 6.43067C2.74831 6.51509 2.70088 6.62959 2.70088 6.74897V8.09941H0.900293V6.74897C0.900293 6.62959 0.852867 6.51509 0.768448 6.43067C0.684029 6.34625 0.569533 6.29883 0.450146 6.29883C0.33076 6.29883 0.216264 6.34625 0.131845 6.43067C0.047426 6.51509 0 6.62959 0 6.74897V7.94937C0 8.22793 0.110661 8.49509 0.307638 8.69207C0.504615 8.88905 0.771774 8.99971 1.05034 8.99971H7.95259C8.23116 8.99971 8.49831 8.88905 8.69529 8.69207C8.89227 8.49509 9.00293 8.22793 9.00293 7.94937V6.74897Z" fill="#5B719D"/>
<path id="Vector_2" d="M8.55415 2.39771C8.55469 2.24331 8.5246 2.09034 8.46562 1.94765C8.40664 1.80496 8.31994 1.67539 8.21054 1.56644L6.77157 0.127471C6.68588 0.0456525 6.57195 0 6.45347 0C6.33499 0 6.22106 0.0456525 6.13536 0.127471C6.05107 0.211873 6.00372 0.326285 6.00372 0.445574C6.00372 0.564863 6.05107 0.679275 6.13536 0.763678L7.31775 1.94756H1.50186V0.747172C1.50186 0.627786 1.45443 0.513289 1.37001 0.42887C1.28559 0.344452 1.1711 0.297026 1.05171 0.297026C0.932323 0.297026 0.817826 0.344452 0.733407 0.42887C0.648988 0.513289 0.601563 0.627786 0.601562 0.747172V4.04825C0.601563 4.16763 0.648988 4.28213 0.733407 4.36655C0.817826 4.45097 0.932323 4.49839 1.05171 4.49839C1.1711 4.49839 1.28559 4.45097 1.37001 4.36655C1.45443 4.28213 1.50186 4.16763 1.50186 4.04825V2.84786H7.31775L6.13536 4.03024C6.05107 4.11464 6.00372 4.22906 6.00372 4.34834C6.00372 4.46763 6.05107 4.58205 6.13536 4.66645C6.22106 4.74827 6.33499 4.79392 6.45347 4.79392C6.57195 4.79392 6.68588 4.74827 6.77157 4.66645L8.21054 3.22748C8.31976 3.11871 8.40636 2.98938 8.46533 2.84696C8.52431 2.70454 8.5545 2.55186 8.55415 2.39771Z" fill="#5B719D"/>
</g>
</svg>
