<svg width="9" height="10" viewBox="0 0 9 10" fill="none" xmlns="http://www.w3.org/2000/svg">
<g id="Group">
<path id="Vector" d="M5.11174 8.99982L5.11207 8.99946L3.78031 8.91338L3.6897 8.99949C3.68971 8.9995 3.68972 8.99951 3.68972 8.99951C3.87706 9.19662 4.12971 9.30469 4.40087 9.30469C4.67244 9.30469 4.9248 9.19512 5.11174 8.99982ZM7.18689 4.40087V4.40105C7.18745 4.79857 6.95788 5.38062 6.50557 6.09474C6.05687 6.80315 5.40101 7.62312 4.57653 8.49138C4.48532 8.5873 4.31637 8.58728 4.22518 8.49134C3.4001 7.6231 2.74394 6.80312 2.29494 6.09471C1.84233 5.3806 1.61241 4.79848 1.61241 4.40087C1.61241 2.86357 2.8635 1.61363 4.39965 1.61363C5.93577 1.61363 7.18689 2.86476 7.18689 4.40087Z" fill="#5B719D" stroke="#5B719D" stroke-width="0.25"/>
<path id="Vector_2" d="M6.08574 4.40224L6.08573 4.40206C6.08442 3.47212 5.32875 2.71484 4.39834 2.71484C3.46809 2.71484 2.71094 3.47199 2.71094 4.40224C2.71094 5.33249 3.46809 6.08964 4.39834 6.08964C5.32858 6.08964 6.08573 5.33249 6.08574 4.40224ZM4.39834 5.35101C3.87491 5.35101 3.44957 4.92567 3.44957 4.40224C3.44957 3.87881 3.87491 3.45347 4.39834 3.45347C4.92177 3.45347 5.3471 3.87881 5.3471 4.40224C5.3471 4.92558 4.92064 5.35101 4.39834 5.35101Z" fill="#5B719D" stroke="#5B719D" stroke-width="0.25"/>
</g>
</svg>
