<svg width="12" height="10" viewBox="0 0 12 10" fill="none" xmlns="http://www.w3.org/2000/svg">
<g id="Group 39701">
<path id="Vector" d="M11.8626 0.0637999C11.8201 0.0329484 11.7709 0.0125516 11.7191 0.00426388C11.6672 -0.00402382 11.6141 3.11596e-05 11.5641 0.0160999L3.66667 2.57117V0.333333C3.66667 0.244928 3.63155 0.160143 3.56904 0.0976311C3.50652 0.035119 3.42174 0 3.33333 0H1.33333C1.24493 0 1.16014 0.035119 1.09763 0.0976311C1.03512 0.160143 1 0.244928 1 0.333333V3.43393L0.2308 3.68277C0.163729 3.70445 0.105258 3.74683 0.0637889 3.80383C0.0223196 3.86083 -1.29808e-05 3.92951 5.66052e-09 4V9C5.66052e-09 9.0884 0.035119 9.17319 0.0976311 9.2357C0.160143 9.29821 0.244928 9.33333 0.333333 9.33333H11.6667C11.7551 9.33333 11.8399 9.29821 11.9024 9.2357C11.9649 9.17319 12 9.0884 12 9V0.333333C12 0.280757 11.9875 0.22893 11.9637 0.182086C11.9398 0.135242 11.9052 0.0947097 11.8626 0.0637999ZM1.66667 0.666667H3V2.78687L1.66667 3.21823V0.666667ZM8 8.66667V6H9.66667V8.66667H8ZM11.3333 8.66667H10.3333V5.66667C10.3333 5.57826 10.2982 5.49348 10.2357 5.43096C10.1732 5.36845 10.0884 5.33333 10 5.33333H7.66667C7.57826 5.33333 7.49348 5.36845 7.43096 5.43096C7.36845 5.49348 7.33333 5.57826 7.33333 5.66667V8.66667H0.666667V4.2425L11.3333 0.7915V8.66667Z" fill="#5B719D"/>
<path id="Vector_2" d="M2.0013 8.00065H6.0013C6.08971 8.00065 6.17449 7.96553 6.237 7.90302C6.29952 7.84051 6.33464 7.75572 6.33464 7.66732V5.66732C6.33464 5.57891 6.29952 5.49413 6.237 5.43162C6.17449 5.3691 6.08971 5.33398 6.0013 5.33398H2.0013C1.9129 5.33398 1.82811 5.3691 1.7656 5.43162C1.70309 5.49413 1.66797 5.57891 1.66797 5.66732V7.66732C1.66797 7.75572 1.70309 7.84051 1.7656 7.90302C1.82811 7.96553 1.9129 8.00065 2.0013 8.00065ZM2.33464 6.00065H5.66797V7.33398H2.33464V6.00065Z" fill="#5B719D"/>
</g>
</svg>
